<svg xmlns="http://www.w3.org/2000/svg" width="960" height="540" viewBox="0 0 960 540">
  <rect width="960" height="540" fill="#0f1218"/>
  <text x="480" y="70" font-family="Segoe UI, Inter, Arial" font-size="28" fill="#BBD3FF" text-anchor="middle">DotCloth — Godot Sample (placeholder)</text>
  <g transform="translate(160,120)">
    <rect x="0" y="0" width="640" height="360" fill="#111723" stroke="#2a3344"/>
    <g stroke="#6aa1ff" stroke-width="1.5" fill="none">
      <path d="M0,60 L640,60" opacity="0.4"/>
      <path d="M0,140 L640,140" opacity="0.4"/>
      <path d="M0,220 L640,220" opacity="0.4"/>
      <path d="M0,300 L640,300" opacity="0.4"/>
      <path d="M60,0 L60,360" opacity="0.2"/>
      <path d="M160,0 L160,360" opacity="0.2"/>
      <path d="M260,0 L260,360" opacity="0.2"/>
      <path d="M360,0 L360,360" opacity="0.2"/>
      <path d="M460,0 L460,360" opacity="0.2"/>
      <path d="M560,0 L560,360" opacity="0.2"/>
    </g>
    <g stroke="#9ec5ff" stroke-width="2">
      <polyline points="0,40 80,36 160,32 240,44 320,80 400,130 480,170 560,200 640,220" fill="none"/>
    </g>
    <g fill="#c6e0ff">
      <circle cx="0" cy="40" r="3"/>
      <circle cx="160" cy="32" r="3"/>
      <circle cx="320" cy="80" r="3"/>
      <circle cx="480" cy="170" r="3"/>
      <circle cx="640" cy="220" r="3"/>
    </g>
    <text x="14" y="20" font-family="Segoe UI, Inter, Arial" font-size="14" fill="#c6e0ff">Pinned vertices</text>
  </g>
</svg>

